<?xml version="1.0" encoding="utf-8"?>
<!-- Generator: Adobe Illustrator 22.1.0, SVG Export Plug-In . SVG Version: 6.00 Build 0)  -->
<svg xmlns="http://www.w3.org/2000/svg" xmlns:xlink="http://www.w3.org/1999/xlink" version="1.1" id="Layer_1" x="0px" y="0px" viewBox="0 0 512 512" style="enable-background:new 0 0 512 512;" xml:space="preserve" width="512" height="512">
<style type="text/css">
	.st0{fill:#FFA730;}
	.st1{fill:#E58D23;}
	.st2{fill:#BF6C0D;}
	.st3{fill:#A56021;}
	.st4{fill:#FFD551;}
	.st5{fill:#FFF4C1;}
	.st6{fill:#FFC34C;}
	.st7{fill:#FFEA63;}
	.st8{fill:#FCE575;}
	.st9{fill:#FFB74B;}
	.st10{fill:#8C4C17;}
	.st11{fill:#F9BB32;}
	.st12{fill:#FF4B34;}
	.st13{fill:#FF9079;}
	.st14{fill:#FFDF74;}
	.st15{fill:#FF624B;}
	.st16{fill:#CCC033;}
	.st17{fill:#EACF32;}
	.st18{fill:#FFEACF;}
	.st19{fill:#99AF17;}
	.st20{fill:#FFD59A;}
	.st21{fill:#FCDA4F;}
	.st22{fill:#FCF9DE;}
	.st23{fill:#DB9C2E;}
</style>
<g>
	<g>
		<g>
			<rect x="228.743" y="118.615" class="st3" width="54.515" height="54.515"/>
		</g>
	</g>
	<g>
		<g>
			<rect x="238.303" y="76.057" class="st2" width="35.395" height="35.395"/>
		</g>
	</g>
	<g>
		<g>
			<polygon class="st10" points="238.743,132.615 283.257,132.615 283.257,118.615 228.743,118.615 228.743,173.13 238.743,173.13         "/>
		</g>
	</g>
	<g>
		<g>
			<polygon class="st3" points="248.303,90.057 273.697,90.057 273.697,76.057 238.303,76.057 238.303,111.452 248.303,111.452         "/>
		</g>
	</g>
	<g>
		<g>
			<path class="st6" d="M50,219.643v148h60v-128c0-19.33,15.67-35,35-35h225c19.33,0,35,15.67,35,35v128h60v-148     c0-41.421-33.579-75-75-75H125C83.579,144.643,50,178.221,50,219.643z"/>
		</g>
	</g>
	<g>
		<g>
			<g>
				<path class="st9" d="M80,238.643c0-41.421,33.579-75,75-75h265c8.379,0,16.427,1.395,23.951,3.93      c-13.639-14.129-32.762-22.93-53.951-22.93H125c-41.421,0-75,33.579-75,75v148h30V238.643z"/>
			</g>
		</g>
	</g>
	<g>
		<g>
			<path class="st1" d="M282.047,82.464h-52.094c-2.209,0-4-1.791-4-4V63.548c0-2.209,1.791-4,4-4h52.094c2.209,0,4,1.791,4,4     v14.916C286.047,80.673,284.256,82.464,282.047,82.464z"/>
		</g>
	</g>
	<g>
		<g>
			<path class="st15" d="M318.27,59.548H193.73c-7.334,0-13.28-5.946-13.28-13.28v0c0-7.334,5.946-13.28,13.28-13.28H318.27     c7.334,0,13.28,5.946,13.28,13.28v0C331.549,53.602,325.604,59.548,318.27,59.548z"/>
		</g>
	</g>
	<g>
		<g>
			<path class="st0" d="M292.634,125.91h-73.269c-2.209,0-4-1.791-4-4v-14.916c0-2.209,1.791-4,4-4h73.269c2.209,0,4,1.791,4,4     v14.916C296.634,124.119,294.844,125.91,292.634,125.91z"/>
		</g>
	</g>
	<g>
		<g>
			<path class="st13" d="M182,221.976h-13c-4.418,0-8-3.582-8-8v-75.692c0-4.418,3.582-8,8-8h13c4.418,0,8,3.582,8,8v75.692     C190,218.394,186.418,221.976,182,221.976z"/>
		</g>
	</g>
	<g>
		<g>
			<path class="st13" d="M346,221.976h-13c-4.418,0-8-3.582-8-8v-75.692c0-4.418,3.582-8,8-8h13c4.418,0,8,3.582,8,8v75.692     C354,218.394,350.418,221.976,346,221.976z"/>
		</g>
	</g>
	<g>
		<g>
			<path class="st13" d="M117.5,385.643h-83c-4.418,0-8-3.582-8-8v-20c0-4.418,3.582-8,8-8h83c4.418,0,8,3.582,8,8v20     C125.5,382.061,121.918,385.643,117.5,385.643z"/>
		</g>
	</g>
	<g>
		<g>
			<path class="st13" d="M477.5,386.643h-83c-4.418,0-8-3.582-8-8v-20c0-4.418,3.582-8,8-8h83c4.418,0,8,3.582,8,8v20     C485.5,383.061,481.918,386.643,477.5,386.643z"/>
		</g>
	</g>
	<g>
		<g>
			<path class="st1" d="M298.5,213.815h-85c-2.209,0-4-1.791-4-4V141.93c0-2.209,1.791-4,4-4h85c2.209,0,4,1.791,4,4v67.886     C302.5,212.025,300.709,213.815,298.5,213.815z"/>
		</g>
	</g>
	<g>
		<g>
			<path class="st15" d="M178,213.976v-75.692c0-3.727,2.551-6.849,6-7.738c-0.64-0.165-1.308-0.262-2-0.262h-13     c-4.418,0-8,3.582-8,8v75.692c0,4.418,3.582,8,8,8h13c0.692,0,1.36-0.097,2-0.262C180.551,220.824,178,217.702,178,213.976z"/>
		</g>
	</g>
	<g>
		<g>
			<path class="st15" d="M342,213.976v-75.692c0-3.727,2.551-6.849,6-7.738c-0.64-0.165-1.308-0.262-2-0.262h-13     c-4.418,0-8,3.582-8,8v75.692c0,4.418,3.582,8,8,8h13c0.692,0,1.36-0.097,2-0.262C344.551,220.824,342,217.702,342,213.976z"/>
		</g>
	</g>
	<g>
		<g>
			<path class="st15" d="M53.5,377.643v-20c0-4.418,3.582-8,8-8h-27c-4.418,0-8,3.582-8,8v20c0,4.418,3.582,8,8,8h27     C57.082,385.643,53.5,382.061,53.5,377.643z"/>
		</g>
	</g>
	<g>
		<g>
			<path class="st15" d="M413.5,378.643v-20c0-4.418,3.582-8,8-8h-27c-4.418,0-8,3.582-8,8v20c0,4.418,3.582,8,8,8h27     C417.082,386.643,413.5,383.061,413.5,378.643z"/>
		</g>
	</g>
	<g>
		<g>
			<path class="st4" d="M444.5,250.94c-3.313,0-6-2.687-6-6v-15.913c0-3.313,2.687-6,6-6s6,2.687,6,6v15.913     C450.5,248.254,447.813,250.94,444.5,250.94z"/>
		</g>
	</g>
	<g>
		<g>
			<path class="st4" d="M444.5,338.815c-3.313,0-6-2.687-6-6v-69.181c0-3.313,2.687-6,6-6s6,2.687,6,6v69.181     C450.5,336.129,447.813,338.815,444.5,338.815z"/>
		</g>
	</g>
	<g>
		<g>
			<path class="st2" d="M229.5,160.93c0-2.209,1.791-4,4-4h69v-15c0-2.209-1.791-4-4-4h-85c-2.209,0-4,1.791-4,4v67.886     c0,2.209,1.791,4,4,4h16V160.93z"/>
		</g>
	</g>
	<g>
		<g>
			<path class="st1" d="M245.366,115.993c0-2.209,1.791-4,4-4h47.269v-5c0-2.209-1.791-4-4-4h-73.269c-2.209,0-4,1.791-4,4v14.917     c0,2.209,1.791,4,4,4h26V115.993z"/>
		</g>
	</g>
	<g>
		<g>
			<path class="st3" d="M241.953,72.548c0-2.209,1.791-4,4-4h40.094v-5c0-2.209-1.791-4-4-4h-52.094c-2.209,0-4,1.791-4,4v14.917     c0,2.209,1.791,4,4,4h12V72.548z"/>
		</g>
	</g>
	<g>
		<g>
			<path class="st0" d="M286.047,205.815c-3.313,0-6-2.687-6-6v-34.371c0-3.313,2.687-6,6-6s6,2.687,6,6v34.371     C292.047,203.129,289.36,205.815,286.047,205.815z"/>
		</g>
	</g>
	<g>
		<g>
			<path class="st12" d="M220.451,46.268c0-7.334,5.946-13.28,13.28-13.28h-40c-7.334,0-13.28,5.945-13.28,13.28     c0,7.334,5.946,13.28,13.28,13.28h40C226.396,59.548,220.451,53.602,220.451,46.268z"/>
		</g>
	</g>
	<g>
		<g>
			<circle class="st15" cx="76" cy="368.643" r="15"/>
		</g>
	</g>
	<g>
		<g>
			<circle class="st9" cx="403.5" cy="185.548" r="15"/>
		</g>
	</g>
	<g>
		<g>
			<path class="st13" d="M314,52.268h-40.303c-3.313,0-6-2.687-6-6s2.687-6,6-6H314c3.313,0,6,2.687,6,6S317.313,52.268,314,52.268z     "/>
		</g>
	</g>
	<g>
		<g>
			<g>
				<path class="st1" d="M439.585,464.066L439.585,464.066c-6.781,6.781-17.775,6.781-24.556,0l-125.67-125.67l24.556-24.556      l125.67,125.67C446.366,446.291,446.366,457.285,439.585,464.066z"/>
			</g>
		</g>
		<g>
			<g>
				<path class="st2" d="M427.74,451.355l-125.67-125.67l-12.711,12.711l125.67,125.67c6.781,6.781,17.775,6.781,24.556,0l0,0      c2.326-2.326,3.854-5.149,4.584-8.127C438.467,457.337,432.195,455.809,427.74,451.355z"/>
			</g>
		</g>
		<g>
			<g>
				<path class="st3" d="M357.963,421.124l49.641,49.641c10.561,10.561,27.764,11.132,38.571,0.823      c11.133-10.619,11.29-28.321,0.471-39.14l-50.004-50.004c-2.6-2.6-6.816-2.6-9.416,0l-29.264,29.264      C355.363,414.308,355.363,418.524,357.963,421.124z"/>
			</g>
		</g>
		<g>
			<g>
				<path class="st10" d="M426.436,451.934l-49.642-49.642c-2.6-2.6-2.6-6.816,0-9.416l-18.832,18.832c-2.6,2.6-2.6,6.816,0,9.416      l49.642,49.642c10.561,10.561,27.764,11.132,38.571,0.823c3.692-3.521,6.169-7.823,7.447-12.393      C444.263,461.769,433.755,459.253,426.436,451.934z"/>
			</g>
		</g>
		<g>
			<g>
				<circle class="st5" cx="256.987" cy="279.066" r="68.372"/>
			</g>
		</g>
		<g>
			<g>
				<path class="st2" d="M445.492,460.713c-0.018,0-0.035,0-0.053,0c-3.313-0.028-5.977-2.738-5.948-6.052      c0.076-8.85-3.839-10.929-4.005-11.013c0.153,0.077,0.244,0.104,0.244,0.104l4.313-11.199      c4.309,1.66,11.569,8.205,11.449,22.212C451.462,458.061,448.781,460.713,445.492,460.713z"/>
			</g>
		</g>
		<g>
			<g>
				<path class="st2" d="M426.361,433.287c-1.536,0-3.071-0.586-4.243-1.758l-29.785-29.785c-2.343-2.343-2.343-6.142,0-8.484      c2.343-2.344,6.143-2.344,8.485,0l29.785,29.785c2.343,2.343,2.343,6.142,0,8.484      C429.433,432.701,427.897,433.287,426.361,433.287z"/>
			</g>
		</g>
		<g>
			<g>
				<path class="st15" d="M321.811,214.242c-17.315-17.315-40.336-26.851-64.823-26.851s-47.509,9.536-64.824,26.851      c-35.744,35.744-35.744,93.904,0,129.648c17.315,17.315,40.337,26.851,64.824,26.851s47.509-9.536,64.823-26.851      c17.316-17.315,26.851-40.337,26.851-64.824S339.126,231.557,321.811,214.242z M305.333,327.412      c-26.658,26.658-70.034,26.658-96.692,0c-26.658-26.658-26.658-70.034,0-96.692c26.658-26.658,70.034-26.658,96.692,0      C331.991,257.378,331.992,300.754,305.333,327.412z"/>
			</g>
		</g>
		<g>
			<g>
				<path class="st12" d="M331.226,315.642c-17.315,17.315-40.336,26.851-64.823,26.851c-24.487,0-47.509-9.536-64.824-26.851      c-21.592-21.592-30.135-51.363-25.641-79.432c-18.282,34.623-12.875,78.579,16.225,107.68      c17.315,17.315,40.337,26.851,64.824,26.851c24.487,0,47.508-9.536,64.823-26.851c13.832-13.831,22.692-31.305,25.701-50.257      C343.272,301.639,337.814,309.055,331.226,315.642z"/>
			</g>
		</g>
		<g>
			<g>
				<circle class="st7" cx="207.289" cy="291.48" r="9.987"/>
			</g>
		</g>
		<g>
			<g>
				<path class="st22" d="M314.133,285.217c-0.017,0-0.034,0-0.051,0c-3.314-0.028-5.978-2.737-5.95-6.051      c0.302-35.88-30.683-50.96-32.002-51.584c-2.989-1.415-4.278-4.985-2.872-7.979c1.407-2.992,4.963-4.289,7.959-2.89      c1.604,0.748,39.282,18.824,38.915,62.554C320.104,282.563,317.423,285.217,314.133,285.217z"/>
			</g>
		</g>
		<g>
			<g>
				<path class="st22" d="M303.618,321.954c-1.729,0-3.443-0.743-4.63-2.18c-2.11-2.555-1.749-6.337,0.806-8.447      c8.602-7.103,8.252-18.062,8.233-18.524c-0.136-3.296,2.414-6.104,5.708-6.261c3.292-0.162,6.098,2.355,6.276,5.649      c0.038,0.704,0.778,17.361-12.577,28.39C306.316,321.504,304.963,321.954,303.618,321.954z"/>
			</g>
		</g>
		<g>
			<g>
				<circle class="st22" cx="250.104" cy="225.089" r="9.987"/>
			</g>
		</g>
	</g>
	<g>
		<g>
			<path class="st7" d="M210.847,326.854c22.124,22.124,56.334,25.502,84.031,10.703c-7.541,2.044-15.324,3.218-23.224,3.456     c-25.982,0.782-50.105-8.602-67.925-26.421c-2.241-2.241-4.331-4.578-6.286-6.994     C200.668,314.609,205.129,321.136,210.847,326.854z"/>
		</g>
	</g>
</g>
</svg>
