<svg height="502pt" viewBox="-17 0 502 502.079" width="502pt" xmlns="http://www.w3.org/2000/svg"><path d="m116.015625 211.4375v205.863281c0 5.519531-4.476563 10-10 10h-91.976563c-5.523437 0-10-4.480469-10-10v-205.863281c0-5.519531 4.476563-10 10-10h91.976563c5.523437 0 10 4.480469 10 10zm0 0" fill="#1c868e"/><path d="m247.257812 325.257812c-9.398437 16.761719-14.757812 36.082032-14.757812 56.679688 0 5.800781.417969 11.5 1.257812 17.082031 1.402344 9.558594 3.980469 18.757813 7.582032 27.417969-1.242188.542969-2.621094.863281-4.082032.863281h-111.238281c-5.519531 0-10-4.480469-10-10v-302.980469c0-5.542968 4.480469-10 10-10h111.238281c5.523438 0 10 4.457032 10 10zm0 0" fill="#d8d6d7"/><path d="m355.859375 266.039062c-2.398437-.160156-4.800781-.238281-7.21875-.238281-27.699219 0-53.140625 9.699219-73.101563 25.898438-11.417968 9.261719-21.058593 20.640625-28.28125 33.558593v-57.21875c0-5.519531 4.480469-10 10-10h88.800782c4.839844 0 8.882812 3.441407 9.800781 8zm0 0" fill="#56c1b3"/><path d="m116.015625 211.4375v187.582031h-73.699219c-5.519531 0-10-4.480469-10-10v-187.582031h73.699219c5.523437 0 10 4.480469 10 10zm0 0" fill="#40c4df"/><path d="m247.257812 325.257812c-9.398437 16.761719-14.757812 36.082032-14.757812 56.679688 0 5.800781.417969 11.5 1.257812 17.082031h-79.457031c-5.519531 0-10-4.480469-10-10v-284.699219h92.957031c5.523438 0 10 4.457032 10 10zm0 0" fill="#fff"/><path d="m355.859375 266.039062c-2.398437-.160156-4.800781-.238281-7.21875-.238281-27.699219 0-53.140625 9.699219-73.101563 25.898438v-33.660157h70.519532c4.839844 0 8.882812 3.441407 9.800781 8zm0 0" fill="#7befe4"/><path d="m226.660156 79.039062v15.28125c0 5.519532-4.480468 10-10 10h-70.039062c-5.523438 0-10-4.480468-10-10v-15.28125c0-5.519531 4.476562-10 10-10h70.039062c5.519532 0 10 4.480469 10 10zm0 0" fill="#1c868e"/><path d="m93.015625 231.679688v9.5c0 5.519531-4.457031 10-10 10h-46c-5.519531 0-10-4.480469-10-10v-9.5c0-5.519532 4.480469-10 10-10h46c5.542969 0 10 4.480468 10 10zm0 0" fill="#56c1b3"/><path d="m93.015625 283.640625v9.5c0 5.519531-4.457031 10-10 10h-46c-5.519531 0-10-4.480469-10-10v-9.5c0-5.523437 4.480469-10 10-10h46c5.542969 0 10 4.476563 10 10zm0 0" fill="#56c1b3"/><path d="m93.015625 335.597656v9.5c0 5.519532-4.457031 10-10 10h-46c-5.519531 0-10-4.480468-10-10v-9.5c0-5.519531 4.480469-10 10-10h46c5.542969 0 10 4.480469 10 10zm0 0" fill="#56c1b3"/><path d="m93.015625 387.558594v9.480468c0 5.519532-4.457031 10-10 10h-46c-5.519531 0-10-4.480468-10-10v-9.480468c0-5.539063 4.480469-10 10-10h46c5.542969 0 10 4.460937 10 10zm0 0" fill="#56c1b3"/><path d="m171.960938 132.800781v266c0 5.519531-4.460938 10-10 10h-14.660157c-5.519531 0-10-4.480469-10-10v-266c0-5.523437 4.480469-10 10-10h14.660157c5.539062 0 10 4.476563 10 10zm0 0" fill="#1c868e"/><path d="m225.960938 132.800781v266c0 5.519531-4.460938 10-10 10h-14.660157c-5.519531 0-10-4.480469-10-10v-266c0-5.523437 4.480469-10 10-10h14.660157c5.539062 0 10 4.476563 10 10zm0 0" fill="#1c868e"/><path d="m226.660156 79.039062v11.121094h-65.902344c-5.519531 0-10-4.460937-10-10v-11.121094h65.902344c5.519532 0 10 4.480469 10 10zm0 0" fill="#40c4df"/><path d="m93.015625 231.679688v5.359374h-41.839844c-5.539062 0-10-4.480468-10-10v-5.359374h41.839844c5.542969 0 10 4.480468 10 10zm0 0" fill="#7befe4"/><path d="m93.015625 283.640625v5.359375h-41.839844c-5.539062 0-10-4.480469-10-10v-5.359375h41.839844c5.542969 0 10 4.476563 10 10zm0 0" fill="#7befe4"/><path d="m93.015625 335.597656v5.363282h-41.839844c-5.539062 0-10-4.480469-10-10v-5.363282h41.839844c5.542969 0 10 4.480469 10 10zm0 0" fill="#7befe4"/><path d="m93.015625 387.558594v5.339844h-41.839844c-5.539062 0-10-4.480469-10-10v-5.339844h41.839844c5.542969 0 10 4.460937 10 10zm0 0" fill="#7befe4"/><path d="m171.960938 132.800781v261.859375h-10.519532c-5.523437 0-10-4.480468-10-10v-261.859375h10.519532c5.539062 0 10 4.476563 10 10zm0 0" fill="#40c4df"/><path d="m225.960938 132.800781v261.859375h-10.519532c-5.523437 0-10-4.480468-10-10v-261.859375h10.519532c5.539062 0 10 4.476563 10 10zm0 0" fill="#40c4df"/><path d="m464.78125 381.9375c0 57.339844-41.542969 104.960938-96.183594 114.421875-6.476562 1.140625-13.15625 1.71875-19.957031 1.71875-48.382813 0-89.839844-29.578125-107.300781-71.640625-5.699219-13.699219-8.839844-28.738281-8.839844-44.5 0-20.597656 5.359375-39.917969 14.757812-56.679688 19.863282-35.480468 57.820313-59.457031 101.382813-59.457031 2.417969 0 4.820313.078125 7.21875.238281 4.300781.261719 8.519531.761719 12.679687 1.480469 54.660157 9.398438 96.242188 57.058594 96.242188 114.417969zm0 0" fill="#d8d6d7"/><path d="m464.78125 381.9375c0 57.339844-41.542969 104.960938-96.183594 114.421875-39.578125-6.898437-72.257812-33.800781-87.257812-69.921875-5.699219-13.699219-8.839844-28.738281-8.839844-44.5 0-20.597656 5.359375-39.917969 14.757812-56.679688 16.742188-29.898437 46.320313-51.617187 81.28125-57.738281 54.660157 9.398438 96.242188 57.058594 96.242188 114.417969zm0 0" fill="#fff"/><path d="m386.941406 392c0 16.300781-8.820312 30.417969-21.621094 37.078125-1.902343.980469-3.101562 2.902344-3.101562 5.019531v6.300782c0 2.378906-1.5 4.421874-3.578125 5.242187-.640625.257813-1.339844.398437-2.0625.398437h-15.878906c-3.121094 0-5.640625-2.539062-5.640625-5.640624v-6.300782c0-2.117187-1.21875-4.039062-3.097656-5.019531-12.800782-6.660156-21.621094-20.777344-21.621094-37.078125 0-22.761719 17.140625-41.199219 38.300781-41.199219 3.457031 0 6.820313.5 10 1.417969 16.300781 4.71875 28.300781 20.742188 28.300781 39.78125zm0 0" fill="#d73735"/><path d="m386.941406 392c0 16.300781-8.820312 30.417969-21.621094 37.078125-1.902343.980469-3.101562 2.902344-3.101562 5.019531v6.300782c0 2.378906-1.5 4.421874-3.578125 5.242187-2.101563-.820313-3.582031-2.863281-3.582031-5.242187v-6.300782c0-2.117187-1.21875-4.039062-3.097656-5.019531-12.800782-6.660156-21.621094-20.777344-21.621094-37.078125 0-19.039062 12-35.0625 28.300781-39.78125 16.300781 4.71875 28.300781 20.742188 28.300781 39.78125zm0 0" fill="#f85252"/><path d="m362.21875 451.660156v.140625c0 2.378907-1.5 4.417969-3.578125 5.238281-.640625.261719-1.339844.398438-2.0625.398438h-15.878906c-3.121094 0-5.640625-2.539062-5.640625-5.636719v-.140625c0-3.101562 2.519531-5.621094 5.640625-5.621094h15.878906c.722656 0 1.421875.140626 2.0625.378907 2.078125.820312 3.578125 2.859375 3.578125 5.242187zm0 0" fill="#1c868e"/><path d="m348.371094 457.429688c-7.027344 0-7.753906 10.59375-.757813 11.226562.335938.027344.679688.042969 1.023438.042969.347656 0 .6875-.015625 1.027343-.042969 6.996094-.632812 6.269532-11.226562-.757812-11.226562zm0 0" fill="#fff"/><g fill="#491352"><path d="m83.027344 217.6875h-46c-7.71875 0-14 6.28125-14 14v9.496094c0 7.71875 6.28125 14 14 14h46c7.71875 0 14-6.28125 14-14v-9.496094c0-7.71875-6.28125-14-14-14zm6 23.496094c0 3.308594-2.691406 6-6 6h-46c-3.308594 0-6-2.691406-6-6v-9.496094c0-3.308594 2.691406-6 6-6h46c3.308594 0 6 2.691406 6 6zm0 0"/><path d="m83.027344 269.640625h-46c-7.71875 0-14 6.28125-14 14v9.496094c0 7.71875 6.28125 14 14 14h46c7.71875 0 14-6.28125 14-14v-9.496094c0-7.71875-6.28125-14-14-14zm6 23.496094c0 3.308593-2.691406 6-6 6h-46c-3.308594 0-6-2.691407-6-6v-9.496094c0-3.308594 2.691406-6 6-6h46c3.308594 0 6 2.691406 6 6zm0 0"/><path d="m83.027344 321.597656h-46c-7.71875 0-14 6.28125-14 14v9.492188c0 7.722656 6.28125 14 14 14h46c7.71875 0 14-6.277344 14-14v-9.492188c0-7.71875-6.28125-14-14-14zm6 23.492188c0 3.308594-2.691406 6-6 6h-46c-3.308594 0-6-2.691406-6-6v-9.492188c0-3.308594 2.691406-6 6-6h46c3.308594 0 6 2.691406 6 6zm0 0"/><path d="m83.027344 373.550781h-46c-7.71875 0-14 6.28125-14 14v9.496094c0 7.71875 6.28125 14 14 14h46c7.71875 0 14-6.28125 14-14v-9.496094c0-7.71875-6.28125-14-14-14zm6 23.496094c0 3.304687-2.691406 6-6 6h-46c-3.308594 0-6-2.695313-6-6v-9.496094c0-3.308593 2.691406-6 6-6h46c3.308594 0 6 2.691407 6 6zm0 0"/><path d="m161.96875 118.800781h-14.667969c-7.71875 0-14 6.28125-14 14v266c0 7.71875 6.28125 14 14 14h14.667969c7.714844 0 14-6.28125 14-14v-266c0-7.71875-6.28125-14-14-14zm6 280c0 3.308594-2.691406 6-6 6h-14.667969c-3.308593 0-6-2.691406-6-6v-266c0-3.308593 2.691407-6 6-6h14.667969c3.308594 0 6 2.691407 6 6zm0 0"/><path d="m348.628906 346.789062c-23.316406 0-42.285156 20.28125-42.285156 45.207032 0 17.425781 9.105469 32.992187 23.765625 40.628906.589844.304688.953125.871094.953125 1.476562v6.292969c0 2.117188.707031 4.058594 1.867188 5.652344-1.160157 1.609375-1.867188 3.582031-1.867188 5.746094 0 4.707031 3.398438 8.621093 7.863281 9.457031-.097656.503906-.175781 1.011719-.199219 1.519531-.234374 5.25 3.351563 9.402344 8.527344 9.871094.457032.039063.917969.058594 1.382813.058594.464843 0 .929687-.019531 1.386719-.058594 5.175781-.46875 8.761718-4.617187 8.523437-9.867187-.019531-.511719-.097656-1.019532-.199219-1.523438 4.46875-.835938 7.863282-4.75 7.863282-9.457031v-.125c0-2.109375-.703126-4.050781-1.859376-5.636719 1.15625-1.589844 1.859376-3.527344 1.859376-5.636719v-6.292969c0-.605468.363281-1.171874.953124-1.476562 14.660157-7.636719 23.765626-23.203125 23.765626-40.628906 0-24.925782-18.976563-45.207032-42.300782-45.207032zm7.945313 106.640626c-.199219 0-16.734375 0-15.875 0-2.113281 0-2.230469-3.398438 0-3.398438h15.875c2.164062 0 2.203125 3.398438 0 3.398438zm-7.269531 11.242187c-.441407.042969-.894532.039063-1.332032 0-.359375-.035156-1.316406-.121094-1.253906-1.539063.027344-.636718.28125-1.703124 1.648438-1.703124h.539062c1.371094 0 1.625 1.066406 1.648438 1.703124.066406 1.417969-.890626 1.503907-1.25 1.539063zm14.160156-39.140625c-3.242188 1.691406-5.253906 4.972656-5.253906 8.570312v6.292969c0 .902344-.734376 1.636719-1.636719 1.636719h-15.875c-.902344 0-1.636719-.734375-1.636719-1.636719v-6.292969c0-3.597656-2.015625-6.882812-5.257812-8.574218-11.820313-6.15625-19.460938-19.316406-19.460938-33.53125 0-20.515625 15.382812-37.207032 34.289062-37.207032 18.914063 0 34.296876 16.691407 34.296876 37.207032 0 14.214844-7.640626 27.375-19.464844 33.535156zm0 0"/><path d="m352.636719 337.078125v-41.902344c0-5.289062-8-5.296875-8 0v41.902344c0 5.285156 8 5.292969 8 0zm0 0"/><path d="m400.335938 308.960938-29.628907 29.625c-3.726562 3.722656 1.902344 9.410156 5.65625 5.65625l29.628907-29.628907c3.6875-3.683593-1.863282-9.445312-5.65625-5.652343zm0 0"/><path d="m326.570312 338.585938-29.628906-29.625c-3.792968-3.792969-9.347656 1.96875-5.65625 5.652343l29.628906 29.628907c3.710938 3.710937 9.398438-1.914063 5.65625-5.65625zm0 0"/><path d="m358.773438 262.273438c-2.230469-4.898438-7.148438-8.234376-12.714844-8.234376h-88.800782c-2.144531 0-4.175781.5-6 1.371094v-141.089844c0-7.722656-6.28125-14-14-14h-7.980468c.871094-1.824218 1.375-3.855468 1.375-6.007812v-15.277344c0-7.71875-6.28125-14-14-14h-31.019532v-61.066406c0-5.289062-8-5.296875-8 0v61.066406h-31.015624c-7.71875 0-14 6.28125-14 14v15.273438c0 2.152344.503906 4.1875 1.375 6.007812h-7.976563c-7.714844 0-14 6.28125-14 14v84.492188c-1.820313-.871094-3.851563-1.371094-6.003906-1.371094h-91.972657c-7.71875 0-13.9999995 6.28125-13.9999995 14v205.855469c0 7.71875 6.2812495 14 13.9999995 14h91.972657c3.917969 0 7.457031-1.621094 10-4.21875 2.546875 2.601562 6.085937 4.226562 10.003906 4.226562h111.242187c.601563 0 1.195313-.054687 1.785157-.128906 19.390625 43.1875 62.019531 70.90625 109.59375 70.90625 66.246093 0 120.140625-53.894531 120.140625-120.140625.003906-62.492188-48.117188-114.523438-110.003906-119.664062zm-218.15625-183.238282c0-3.308594 2.691406-6 6-6h70.035156c3.308594 0 6 2.691406 6 6v15.273438c0 3.308594-2.691406 6-6 6h-70.035156c-3.308594 0-6-2.691406-6-6zm116.640624 183.003906h83.792969c-35.117187 2.210938-68.492187 20.0625-89.792969 49.535157v-43.535157c0-3.308593 2.695313-6 6-6zm-145.242187 155.257813c0 3.304687-2.691406 6-6 6h-91.976563c-3.308593 0-6-2.695313-6-6v-205.859375c0-3.304688 2.691407-6 6-6h91.972657c3.308593 0 6 2.695312 6 6v205.859375zm14.003906 6.003906c-3.308593 0-6-2.695312-6-6v-302.980469c0-3.308593 2.691407-6 6-6h111.238281c3.308594 0 6 2.691407 6 6v209.902344c-6.355468 11.578125-11.042968 24.914063-13.253906 38.765625-.011718.074219-.023437.148438-.035156.222657v-230.410157c0-7.71875-6.28125-14-14-14h-14.664062c-7.71875 0-14 6.28125-14 14v266c0 7.71875 6.28125 14 14 14h14.664062c7.230469 0 13.199219-5.511719 13.925781-12.550781 1.136719 7.421875 3.261719 15.820312 5.917969 23.046875h-109.792969zm95.949219-290.5v266c0 3.308594-2.691406 6-6 6h-14.667969c-3.308593 0-6-2.691406-6-6v-266c0-3.308593 2.691407-6 6-6h14.667969c3.308594 0 6 2.691407 6 6zm126.667969 361.277344c-45.492188 0-86.160157-27.152344-103.605469-69.175781-5.660156-13.605469-8.535156-28.058594-8.535156-42.960938 0-61.582031 49.910156-112.140625 112.140625-112.140625 61.902343 0 112.140625 50.316407 112.140625 112.140625.003906 61.832032-50.304688 112.136719-112.140625 112.136719zm0 0"/></g></svg>